<svg width="150" height="150" viewBox="0 0 150 150" fill="none" xmlns="http://www.w3.org/2000/svg">
<g id="Emblem inv">
<rect width="100" height="100" transform="scale(1.5)" fill="#0066CC"/>
<g id="Brand mark">
<rect id="Rectangle 7" width="150" height="150" fill="#F4F5F0"/>
<g id="Emblem">
<path id="OR" d="M63.9219 135.565C60.0879 135.565 56.7129 134.782 53.7969 133.216C50.8809 131.65 48.6129 129.463 46.9929 126.655C45.4269 123.793 44.6439 120.499 44.6439 116.773V96.3607C44.6439 92.6347 45.4269 89.3677 46.9929 86.5597C48.6129 83.6977 50.8809 81.4837 53.7969 79.9177C56.7129 78.3517 60.0879 77.5687 63.9219 77.5687C67.7559 77.5687 71.1309 78.3517 74.0469 79.9177C77.0169 81.4837 79.2849 83.6977 80.8509 86.5597C82.4709 89.3677 83.2809 92.6347 83.2809 96.3607V116.773C83.2809 120.499 82.4709 123.793 80.8509 126.655C79.2849 129.463 77.0169 131.65 74.0469 133.216C71.1309 134.782 67.7559 135.565 63.9219 135.565ZM63.9219 130.624C68.0259 130.624 71.3199 129.382 73.8039 126.898C76.2879 124.414 77.5299 121.12 77.5299 117.016V96.2797C77.5299 92.1757 76.2879 88.8817 73.8039 86.3977C71.3199 83.8597 68.0259 82.5907 63.9219 82.5907C59.8719 82.5907 56.6049 83.8597 54.1209 86.3977C51.6369 88.8817 50.3949 92.1757 50.3949 96.2797V117.016C50.3949 121.12 51.6369 124.414 54.1209 126.898C56.6049 129.382 59.8719 130.624 63.9219 130.624ZM129.862 134.917C129.376 134.917 129.052 134.728 128.89 134.35L116.983 109.24C116.929 109.078 116.821 108.997 116.659 108.997H102.889C102.673 108.997 102.565 109.105 102.565 109.321V134.107C102.565 134.647 102.295 134.917 101.755 134.917H97.6236C97.0836 134.917 96.8136 134.647 96.8136 134.107V79.0267C96.8136 78.4867 97.0836 78.2167 97.6236 78.2167H118.603C123.247 78.2167 127 79.6747 129.862 82.5907C132.724 85.4527 134.155 89.2057 134.155 93.8497C134.155 97.6297 133.129 100.843 131.077 103.489C129.025 106.135 126.244 107.836 122.734 108.592C122.518 108.7 122.464 108.835 122.572 108.997L134.722 133.945C134.776 134.053 134.803 134.188 134.803 134.35C134.803 134.728 134.587 134.917 134.155 134.917H129.862ZM102.889 83.2387C102.673 83.2387 102.565 83.3467 102.565 83.5627V104.056C102.565 104.272 102.673 104.38 102.889 104.38H117.955C121.087 104.38 123.625 103.408 125.569 101.464C127.513 99.5197 128.485 96.9817 128.485 93.8497C128.485 90.7177 127.513 88.1797 125.569 86.2357C123.625 84.2377 121.087 83.2387 117.955 83.2387H102.889Z" fill="#0066CC"/>
<path id="Line 1" d="M55.768 67.537V67.537C61.1448 59.8519 72.2211 63.6314 72.1313 73.1205L72.0438 82.372" stroke="#0066CC" stroke-width="3.5"/>
</g>
</g>
</g>
</svg>
