<svg width="603" height="150" viewBox="0 0 603 150" fill="none" xmlns="http://www.w3.org/2000/svg">
<g id="Logo + Claim">
<rect width="402" height="100" transform="scale(1.5)" fill="#F4F5F0"/>
<path id="Logotype" d="M213.6 57.66C210.48 57.66 207.72 57.02 205.32 55.74C202.96 54.46 201.12 52.68 199.8 50.4C198.48 48.08 197.82 45.42 197.82 42.42V29.58C197.82 26.62 198.48 24 199.8 21.72C201.12 19.44 202.96 17.68 205.32 16.44C207.72 15.16 210.48 14.52 213.6 14.52C216.76 14.52 219.52 15.16 221.88 16.44C224.28 17.68 226.14 19.44 227.46 21.72C228.78 24 229.44 26.62 229.44 29.58V42.42C229.44 45.42 228.78 48.08 227.46 50.4C226.14 52.72 224.28 54.52 221.88 55.8C219.52 57.04 216.76 57.66 213.6 57.66ZM213.6 50.4C215.8 50.4 217.58 49.7 218.94 48.3C220.3 46.9 220.98 45.04 220.98 42.72V29.52C220.98 27.2 220.3 25.34 218.94 23.94C217.62 22.5 215.84 21.78 213.6 21.78C211.4 21.78 209.62 22.5 208.26 23.94C206.94 25.34 206.28 27.2 206.28 29.52V42.72C206.28 45.04 206.94 46.9 208.26 48.3C209.62 49.7 211.4 50.4 213.6 50.4ZM262.926 34.44C263.646 36.48 264.006 38.88 264.006 41.64C264.006 44.4 263.626 46.9 262.866 49.14C261.946 51.7 260.486 53.74 258.486 55.26C256.526 56.74 254.086 57.48 251.166 57.48C248.286 57.48 246.046 56.48 244.446 54.48C244.366 54.36 244.286 54.32 244.206 54.36C244.126 54.4 244.086 54.48 244.086 54.6V67.44C244.086 67.64 244.006 67.8 243.846 67.92C243.726 68.08 243.566 68.16 243.366 68.16H236.346C236.146 68.16 235.966 68.08 235.806 67.92C235.686 67.8 235.626 67.64 235.626 67.44V26.88C235.626 26.68 235.686 26.52 235.806 26.4C235.966 26.24 236.146 26.16 236.346 26.16H243.366C243.566 26.16 243.726 26.24 243.846 26.4C244.006 26.52 244.086 26.68 244.086 26.88V28.86C244.086 28.98 244.126 29.06 244.206 29.1C244.286 29.1 244.366 29.06 244.446 28.98C246.126 26.78 248.446 25.68 251.406 25.68C254.166 25.68 256.546 26.46 258.546 28.02C260.586 29.54 262.046 31.68 262.926 34.44ZM253.746 47.88C254.746 46.32 255.246 44.2 255.246 41.52C255.246 39 254.826 37 253.986 35.52C253.066 33.8 251.586 32.94 249.546 32.94C247.706 32.94 246.326 33.8 245.406 35.52C244.566 36.96 244.146 38.98 244.146 41.58C244.146 44.26 244.586 46.34 245.466 47.82C246.386 49.42 247.746 50.22 249.546 50.22C251.346 50.22 252.746 49.44 253.746 47.88ZM296.611 38.4C296.851 39.92 296.931 41.62 296.851 43.5C296.811 43.98 296.551 44.22 296.071 44.22H277.531C277.291 44.22 277.211 44.32 277.291 44.52C277.411 45.32 277.631 46.12 277.951 46.92C278.991 49.16 281.111 50.28 284.311 50.28C286.871 50.24 288.891 49.2 290.371 47.16C290.531 46.92 290.711 46.8 290.911 46.8C291.031 46.8 291.171 46.88 291.331 47.04L295.651 51.3C295.851 51.5 295.951 51.68 295.951 51.84C295.951 51.92 295.871 52.08 295.711 52.32C294.391 53.96 292.691 55.24 290.611 56.16C288.531 57.04 286.251 57.48 283.771 57.48C280.331 57.48 277.411 56.7 275.011 55.14C272.651 53.58 270.951 51.4 269.911 48.6C269.071 46.6 268.651 43.98 268.651 40.74C268.651 38.54 268.951 36.6 269.551 34.92C270.471 32.08 272.071 29.82 274.351 28.14C276.671 26.46 279.411 25.62 282.571 25.62C286.571 25.62 289.771 26.78 292.171 29.1C294.611 31.42 296.091 34.52 296.611 38.4ZM282.631 32.94C280.111 32.94 278.451 34.12 277.651 36.48C277.491 37 277.351 37.64 277.231 38.4C277.231 38.6 277.331 38.7 277.531 38.7H287.911C288.151 38.7 288.231 38.6 288.151 38.4C287.951 37.24 287.851 36.68 287.851 36.72C287.491 35.52 286.851 34.6 285.931 33.96C285.051 33.28 283.951 32.94 282.631 32.94ZM318.145 25.68C321.345 25.68 323.925 26.66 325.885 28.62C327.845 30.58 328.825 33.24 328.825 36.6V56.28C328.825 56.48 328.745 56.66 328.585 56.82C328.465 56.94 328.305 57 328.105 57H321.085C320.885 57 320.705 56.94 320.545 56.82C320.425 56.66 320.365 56.48 320.365 56.28V38.34C320.365 36.74 319.905 35.44 318.985 34.44C318.105 33.44 316.925 32.94 315.445 32.94C313.965 32.94 312.765 33.44 311.845 34.44C310.965 35.44 310.525 36.74 310.525 38.34V56.28C310.525 56.48 310.445 56.66 310.285 56.82C310.165 56.94 310.005 57 309.805 57H302.785C302.585 57 302.405 56.94 302.245 56.82C302.125 56.66 302.065 56.48 302.065 56.28V26.88C302.065 26.68 302.125 26.52 302.245 26.4C302.405 26.24 302.585 26.16 302.785 26.16H309.805C310.005 26.16 310.165 26.24 310.285 26.4C310.445 26.52 310.525 26.68 310.525 26.88V28.98C310.525 29.1 310.565 29.18 310.645 29.22C310.725 29.26 310.785 29.24 310.825 29.16C312.465 26.84 314.905 25.68 318.145 25.68ZM358.458 57C358.058 57 357.778 56.82 357.618 56.46L350.118 39.84C350.038 39.68 349.918 39.6 349.758 39.6H344.178C343.978 39.6 343.878 39.7 343.878 39.9V56.28C343.878 56.48 343.798 56.66 343.638 56.82C343.518 56.94 343.358 57 343.158 57H336.138C335.938 57 335.758 56.94 335.598 56.82C335.478 56.66 335.418 56.48 335.418 56.28V15.72C335.418 15.52 335.478 15.36 335.598 15.24C335.758 15.08 335.938 15 336.138 15H353.298C355.858 15 358.098 15.52 360.018 16.56C361.978 17.6 363.478 19.08 364.518 21C365.598 22.92 366.138 25.14 366.138 27.66C366.138 30.38 365.458 32.72 364.098 34.68C362.738 36.6 360.838 37.96 358.398 38.76C358.198 38.84 358.138 38.98 358.218 39.18L366.378 56.16C366.458 56.32 366.498 56.44 366.498 56.52C366.498 56.84 366.278 57 365.838 57H358.458ZM344.178 22.26C343.978 22.26 343.878 22.36 343.878 22.56V32.82C343.878 33.02 343.978 33.12 344.178 33.12H352.038C353.718 33.12 355.078 32.62 356.118 31.62C357.198 30.62 357.738 29.32 357.738 27.72C357.738 26.12 357.198 24.82 356.118 23.82C355.078 22.78 353.718 22.26 352.038 22.26H344.178ZM384.943 57.48C381.583 57.48 378.703 56.6 376.303 54.84C373.903 53.08 372.263 50.68 371.383 47.64C370.823 45.76 370.543 43.72 370.543 41.52C370.543 39.16 370.823 37.04 371.383 35.16C372.303 32.2 373.963 29.88 376.363 28.2C378.763 26.52 381.643 25.68 385.003 25.68C388.283 25.68 391.083 26.52 393.403 28.2C395.723 29.84 397.363 32.14 398.323 35.1C398.963 37.1 399.283 39.2 399.283 41.4C399.283 43.56 399.003 45.58 398.443 47.46C397.563 50.58 395.923 53.04 393.523 54.84C391.163 56.6 388.303 57.48 384.943 57.48ZM384.943 50.22C386.263 50.22 387.383 49.82 388.303 49.02C389.223 48.22 389.883 47.12 390.283 45.72C390.603 44.44 390.763 43.04 390.763 41.52C390.763 39.84 390.603 38.42 390.283 37.26C389.843 35.9 389.163 34.84 388.243 34.08C387.323 33.32 386.203 32.94 384.883 32.94C383.523 32.94 382.383 33.32 381.463 34.08C380.583 34.84 379.943 35.9 379.543 37.26C379.223 38.22 379.063 39.64 379.063 41.52C379.063 43.32 379.203 44.72 379.483 45.72C379.883 47.12 380.543 48.22 381.463 49.02C382.423 49.82 383.583 50.22 384.943 50.22ZM422.722 26.88C422.722 26.68 422.782 26.52 422.902 26.4C423.062 26.24 423.242 26.16 423.442 26.16H430.462C430.662 26.16 430.822 26.24 430.942 26.4C431.102 26.52 431.182 26.68 431.182 26.88V56.28C431.182 56.48 431.102 56.66 430.942 56.82C430.822 56.94 430.662 57 430.462 57H423.442C423.242 57 423.062 56.94 422.902 56.82C422.782 56.66 422.722 56.48 422.722 56.28V54.24C422.722 54.12 422.682 54.06 422.602 54.06C422.522 54.02 422.442 54.06 422.362 54.18C420.762 56.34 418.282 57.42 414.922 57.42C411.882 57.42 409.382 56.5 407.422 54.66C405.462 52.82 404.482 50.24 404.482 46.92V26.88C404.482 26.68 404.542 26.52 404.662 26.4C404.822 26.24 405.002 26.16 405.202 26.16H412.162C412.362 26.16 412.522 26.24 412.642 26.4C412.802 26.52 412.882 26.68 412.882 26.88V44.82C412.882 46.42 413.302 47.72 414.142 48.72C415.022 49.72 416.222 50.22 417.742 50.22C419.102 50.22 420.222 49.82 421.102 49.02C421.982 48.18 422.522 47.1 422.722 45.78V26.88ZM449.717 57.42C447.037 57.42 444.697 57.04 442.697 56.28C440.697 55.52 439.137 54.46 438.017 53.1C436.937 51.74 436.397 50.2 436.397 48.48V47.88C436.397 47.68 436.457 47.52 436.577 47.4C436.737 47.24 436.917 47.16 437.117 47.16H443.777C443.977 47.16 444.137 47.24 444.257 47.4C444.417 47.52 444.497 47.68 444.497 47.88V47.94C444.497 48.82 444.977 49.58 445.937 50.22C446.937 50.82 448.177 51.12 449.657 51.12C451.017 51.12 452.117 50.86 452.957 50.34C453.797 49.78 454.217 49.1 454.217 48.3C454.217 47.58 453.857 47.04 453.137 46.68C452.417 46.32 451.237 45.94 449.597 45.54C447.717 45.06 446.237 44.6 445.157 44.16C442.597 43.28 440.557 42.2 439.037 40.92C437.517 39.64 436.757 37.8 436.757 35.4C436.757 32.44 437.897 30.1 440.177 28.38C442.497 26.62 445.557 25.74 449.357 25.74C451.917 25.74 454.157 26.16 456.077 27C457.997 27.8 459.477 28.94 460.517 30.42C461.597 31.9 462.137 33.58 462.137 35.46C462.137 35.66 462.057 35.84 461.897 36C461.777 36.12 461.617 36.18 461.417 36.18H454.997C454.797 36.18 454.617 36.12 454.457 36C454.337 35.84 454.277 35.66 454.277 35.46C454.277 34.58 453.817 33.84 452.897 33.24C452.017 32.64 450.837 32.34 449.357 32.34C448.037 32.34 446.957 32.58 446.117 33.06C445.277 33.54 444.857 34.2 444.857 35.04C444.857 35.84 445.257 36.44 446.057 36.84C446.897 37.24 448.277 37.66 450.197 38.1C450.637 38.22 451.137 38.36 451.697 38.52C452.257 38.64 452.857 38.8 453.497 39C456.337 39.84 458.577 40.92 460.217 42.24C461.857 43.56 462.677 45.48 462.677 48C462.677 50.96 461.497 53.28 459.137 54.96C456.817 56.6 453.677 57.42 449.717 57.42ZM479.424 57.42C476.744 57.42 474.404 57.04 472.404 56.28C470.404 55.52 468.844 54.46 467.724 53.1C466.644 51.74 466.104 50.2 466.104 48.48V47.88C466.104 47.68 466.164 47.52 466.284 47.4C466.444 47.24 466.624 47.16 466.824 47.16H473.484C473.684 47.16 473.844 47.24 473.964 47.4C474.124 47.52 474.204 47.68 474.204 47.88V47.94C474.204 48.82 474.684 49.58 475.644 50.22C476.644 50.82 477.884 51.12 479.364 51.12C480.724 51.12 481.824 50.86 482.664 50.34C483.504 49.78 483.924 49.1 483.924 48.3C483.924 47.58 483.564 47.04 482.844 46.68C482.124 46.32 480.944 45.94 479.304 45.54C477.424 45.06 475.944 44.6 474.864 44.16C472.304 43.28 470.264 42.2 468.744 40.92C467.224 39.64 466.464 37.8 466.464 35.4C466.464 32.44 467.604 30.1 469.884 28.38C472.204 26.62 475.264 25.74 479.064 25.74C481.624 25.74 483.864 26.16 485.784 27C487.704 27.8 489.184 28.94 490.224 30.42C491.304 31.9 491.844 33.58 491.844 35.46C491.844 35.66 491.764 35.84 491.604 36C491.484 36.12 491.324 36.18 491.124 36.18H484.704C484.504 36.18 484.324 36.12 484.164 36C484.044 35.84 483.984 35.66 483.984 35.46C483.984 34.58 483.524 33.84 482.604 33.24C481.724 32.64 480.544 32.34 479.064 32.34C477.744 32.34 476.664 32.58 475.824 33.06C474.984 33.54 474.564 34.2 474.564 35.04C474.564 35.84 474.964 36.44 475.764 36.84C476.604 37.24 477.984 37.66 479.904 38.1C480.344 38.22 480.844 38.36 481.404 38.52C481.964 38.64 482.564 38.8 483.204 39C486.044 39.84 488.284 40.92 489.924 42.24C491.564 43.56 492.384 45.48 492.384 48C492.384 50.96 491.204 53.28 488.844 54.96C486.524 56.6 483.384 57.42 479.424 57.42ZM524.541 38.4C524.781 39.92 524.861 41.62 524.781 43.5C524.741 43.98 524.481 44.22 524.001 44.22H505.461C505.221 44.22 505.141 44.32 505.221 44.52C505.341 45.32 505.561 46.12 505.881 46.92C506.921 49.16 509.041 50.28 512.241 50.28C514.801 50.24 516.821 49.2 518.301 47.16C518.461 46.92 518.641 46.8 518.841 46.8C518.961 46.8 519.101 46.88 519.261 47.04L523.581 51.3C523.781 51.5 523.881 51.68 523.881 51.84C523.881 51.92 523.801 52.08 523.641 52.32C522.321 53.96 520.621 55.24 518.541 56.16C516.461 57.04 514.181 57.48 511.701 57.48C508.261 57.48 505.341 56.7 502.941 55.14C500.581 53.58 498.881 51.4 497.841 48.6C497.001 46.6 496.581 43.98 496.581 40.74C496.581 38.54 496.881 36.6 497.481 34.92C498.401 32.08 500.001 29.82 502.281 28.14C504.601 26.46 507.341 25.62 510.501 25.62C514.501 25.62 517.701 26.78 520.101 29.1C522.541 31.42 524.021 34.52 524.541 38.4ZM510.561 32.94C508.041 32.94 506.381 34.12 505.581 36.48C505.421 37 505.281 37.64 505.161 38.4C505.161 38.6 505.261 38.7 505.461 38.7H515.841C516.081 38.7 516.161 38.6 516.081 38.4C515.881 37.24 515.781 36.68 515.781 36.72C515.421 35.52 514.781 34.6 513.861 33.96C512.981 33.28 511.881 32.94 510.561 32.94ZM542.002 25.68C544.602 25.68 546.922 26.14 548.962 27.06C551.002 27.94 552.582 29.16 553.702 30.72C554.862 32.28 555.442 34.02 555.442 35.94V56.28C555.442 56.48 555.362 56.66 555.202 56.82C555.082 56.94 554.922 57 554.722 57H547.702C547.502 57 547.322 56.94 547.162 56.82C547.042 56.66 546.982 56.48 546.982 56.28V54.3C546.982 54.18 546.942 54.1 546.862 54.06C546.782 54.02 546.702 54.06 546.622 54.18C544.942 56.38 542.242 57.48 538.522 57.48C535.402 57.48 532.882 56.72 530.962 55.2C529.042 53.68 528.082 51.44 528.082 48.48C528.082 45.4 529.162 43.02 531.322 41.34C533.482 39.62 536.562 38.76 540.562 38.76H546.682C546.882 38.76 546.982 38.66 546.982 38.46V37.14C546.982 35.82 546.582 34.8 545.782 34.08C544.982 33.32 543.782 32.94 542.182 32.94C540.942 32.94 539.902 33.16 539.062 33.6C538.262 34.04 537.742 34.66 537.502 35.46C537.382 35.9 537.122 36.1 536.722 36.06L529.462 35.1C528.982 35.02 528.762 34.84 528.802 34.56C528.962 32.88 529.622 31.36 530.782 30C531.982 28.64 533.542 27.58 535.462 26.82C537.422 26.06 539.602 25.68 542.002 25.68ZM540.802 51.18C542.522 51.18 543.982 50.72 545.182 49.8C546.382 48.88 546.982 47.7 546.982 46.26V44.1C546.982 43.9 546.882 43.8 546.682 43.8H542.362C540.562 43.8 539.142 44.14 538.102 44.82C537.102 45.5 536.602 46.46 536.602 47.7C536.602 48.78 536.982 49.64 537.742 50.28C538.502 50.88 539.522 51.18 540.802 51.18ZM579.401 26.88C579.401 26.68 579.461 26.52 579.581 26.4C579.741 26.24 579.921 26.16 580.121 26.16H587.141C587.341 26.16 587.501 26.24 587.621 26.4C587.781 26.52 587.861 26.68 587.861 26.88V56.28C587.861 56.48 587.781 56.66 587.621 56.82C587.501 56.94 587.341 57 587.141 57H580.121C579.921 57 579.741 56.94 579.581 56.82C579.461 56.66 579.401 56.48 579.401 56.28V54.24C579.401 54.12 579.361 54.06 579.281 54.06C579.201 54.02 579.121 54.06 579.041 54.18C577.441 56.34 574.961 57.42 571.601 57.42C568.561 57.42 566.061 56.5 564.101 54.66C562.141 52.82 561.161 50.24 561.161 46.92V26.88C561.161 26.68 561.221 26.52 561.341 26.4C561.501 26.24 561.681 26.16 561.881 26.16H568.841C569.041 26.16 569.201 26.24 569.321 26.4C569.481 26.52 569.561 26.68 569.561 26.88V44.82C569.561 46.42 569.981 47.72 570.821 48.72C571.701 49.72 572.901 50.22 574.421 50.22C575.781 50.22 576.901 49.82 577.781 49.02C578.661 48.18 579.201 47.1 579.401 45.78V26.88Z" fill="#0066CC"/>
<path id="Claim" d="M205.86 77.9445C207.56 77.9445 208.93 78.4745 209.97 79.5345C211.01 80.5745 211.53 81.9545 211.53 83.6745C211.53 85.3745 211 86.7445 209.94 87.7845C208.9 88.8245 207.52 89.3445 205.8 89.3445H199.56C199.48 89.3445 199.44 89.3845 199.44 89.4645V98.7045C199.44 98.9045 199.34 99.0045 199.14 99.0045H198.15C197.95 99.0045 197.85 98.9045 197.85 98.7045V78.2445C197.85 78.0445 197.95 77.9445 198.15 77.9445H205.86ZM205.74 87.9945C207 87.9945 208.01 87.6045 208.77 86.8245C209.55 86.0245 209.94 84.9845 209.94 83.7045C209.94 82.4045 209.55 81.3645 208.77 80.5845C208.01 79.7845 207 79.3845 205.74 79.3845H199.56C199.48 79.3845 199.44 79.4245 199.44 79.5045V87.8745C199.44 87.9545 199.48 87.9945 199.56 87.9945H205.74ZM216.091 80.8545C215.651 80.8545 215.291 80.7145 215.011 80.4345C214.731 80.1545 214.591 79.7945 214.591 79.3545C214.591 78.9145 214.731 78.5545 215.011 78.2745C215.291 77.9945 215.651 77.8545 216.091 77.8545C216.531 77.8545 216.891 77.9945 217.171 78.2745C217.451 78.5545 217.591 78.9145 217.591 79.3545C217.591 79.7945 217.451 80.1545 217.171 80.4345C216.891 80.7145 216.531 80.8545 216.091 80.8545ZM215.521 98.9745C215.321 98.9745 215.221 98.8745 215.221 98.6745V84.1545C215.221 83.9545 215.321 83.8545 215.521 83.8545H216.511C216.711 83.8545 216.811 83.9545 216.811 84.1545V98.6745C216.811 98.8745 216.711 98.9745 216.511 98.9745H215.521ZM227.103 83.6445C228.863 83.6445 230.203 84.1045 231.123 85.0245C232.043 85.9245 232.503 87.1445 232.503 88.6845V98.7045C232.503 98.9045 232.403 99.0045 232.203 99.0045H231.213C231.013 99.0045 230.913 98.9045 230.913 98.7045V97.2945C230.913 97.2545 230.893 97.2245 230.853 97.2045C230.833 97.1845 230.803 97.1945 230.763 97.2345C230.243 97.8945 229.563 98.3945 228.723 98.7345C227.903 99.0745 226.983 99.2445 225.963 99.2445C224.583 99.2445 223.413 98.8945 222.453 98.1945C221.493 97.4945 221.013 96.4245 221.013 94.9845C221.013 93.5045 221.563 92.3345 222.663 91.4745C223.763 90.6145 225.273 90.1845 227.193 90.1845H230.793C230.873 90.1845 230.913 90.1445 230.913 90.0645V88.7145C230.913 87.5945 230.593 86.7045 229.953 86.0445C229.333 85.3845 228.373 85.0545 227.073 85.0545C226.053 85.0545 225.213 85.2645 224.553 85.6845C223.893 86.1045 223.483 86.6645 223.323 87.3645C223.263 87.5645 223.143 87.6545 222.963 87.6345L221.913 87.4845C221.693 87.4445 221.603 87.3645 221.643 87.2445C221.823 86.1645 222.403 85.2945 223.383 84.6345C224.383 83.9745 225.623 83.6445 227.103 83.6445ZM226.233 97.8645C227.493 97.8645 228.583 97.5545 229.503 96.9345C230.443 96.3145 230.913 95.4545 230.913 94.3545V91.6245C230.913 91.5445 230.873 91.5045 230.793 91.5045H227.343C225.923 91.5045 224.773 91.8045 223.893 92.4045C223.033 93.0045 222.603 93.8345 222.603 94.8945C222.603 95.8745 222.943 96.6145 223.623 97.1145C224.303 97.6145 225.173 97.8645 226.233 97.8645ZM243.036 84.9345C243.036 85.1345 242.936 85.2345 242.736 85.2345H239.226C239.146 85.2345 239.106 85.2745 239.106 85.3545V94.8345C239.106 95.8545 239.336 96.5745 239.796 96.9945C240.256 97.3945 240.996 97.5945 242.016 97.5945H242.706C242.906 97.5945 243.006 97.6945 243.006 97.8945V98.7045C243.006 98.9045 242.906 99.0045 242.706 99.0045L241.806 99.0345C240.406 99.0345 239.346 98.7645 238.626 98.2245C237.926 97.6845 237.566 96.6945 237.546 95.2545V85.3545C237.546 85.2745 237.506 85.2345 237.426 85.2345H235.626C235.426 85.2345 235.326 85.1345 235.326 84.9345V84.1845C235.326 83.9845 235.426 83.8845 235.626 83.8845H237.426C237.506 83.8845 237.546 83.8445 237.546 83.7645V80.3445C237.546 80.1445 237.646 80.0445 237.846 80.0445H238.806C239.006 80.0445 239.106 80.1445 239.106 80.3445V83.7645C239.106 83.8445 239.146 83.8845 239.226 83.8845H242.736C242.936 83.8845 243.036 83.9845 243.036 84.1845V84.9345ZM253.374 84.9345C253.374 85.1345 253.274 85.2345 253.074 85.2345H249.564C249.484 85.2345 249.444 85.2745 249.444 85.3545V94.8345C249.444 95.8545 249.674 96.5745 250.134 96.9945C250.594 97.3945 251.334 97.5945 252.354 97.5945H253.044C253.244 97.5945 253.344 97.6945 253.344 97.8945V98.7045C253.344 98.9045 253.244 99.0045 253.044 99.0045L252.144 99.0345C250.744 99.0345 249.684 98.7645 248.964 98.2245C248.264 97.6845 247.904 96.6945 247.884 95.2545V85.3545C247.884 85.2745 247.844 85.2345 247.764 85.2345H245.964C245.764 85.2345 245.664 85.1345 245.664 84.9345V84.1845C245.664 83.9845 245.764 83.8845 245.964 83.8845H247.764C247.844 83.8845 247.884 83.8445 247.884 83.7645V80.3445C247.884 80.1445 247.984 80.0445 248.184 80.0445H249.144C249.344 80.0445 249.444 80.1445 249.444 80.3445V83.7645C249.444 83.8445 249.484 83.8845 249.564 83.8845H253.074C253.274 83.8845 253.374 83.9845 253.374 84.1845V84.9345ZM262.421 83.6445C264.181 83.6445 265.521 84.1045 266.441 85.0245C267.361 85.9245 267.821 87.1445 267.821 88.6845V98.7045C267.821 98.9045 267.721 99.0045 267.521 99.0045H266.531C266.331 99.0045 266.231 98.9045 266.231 98.7045V97.2945C266.231 97.2545 266.211 97.2245 266.171 97.2045C266.151 97.1845 266.121 97.1945 266.081 97.2345C265.561 97.8945 264.881 98.3945 264.041 98.7345C263.221 99.0745 262.301 99.2445 261.281 99.2445C259.901 99.2445 258.731 98.8945 257.771 98.1945C256.811 97.4945 256.331 96.4245 256.331 94.9845C256.331 93.5045 256.881 92.3345 257.981 91.4745C259.081 90.6145 260.591 90.1845 262.511 90.1845H266.111C266.191 90.1845 266.231 90.1445 266.231 90.0645V88.7145C266.231 87.5945 265.911 86.7045 265.271 86.0445C264.651 85.3845 263.691 85.0545 262.391 85.0545C261.371 85.0545 260.531 85.2645 259.871 85.6845C259.211 86.1045 258.801 86.6645 258.641 87.3645C258.581 87.5645 258.461 87.6545 258.281 87.6345L257.231 87.4845C257.011 87.4445 256.921 87.3645 256.961 87.2445C257.141 86.1645 257.721 85.2945 258.701 84.6345C259.701 83.9745 260.941 83.6445 262.421 83.6445ZM261.551 97.8645C262.811 97.8645 263.901 97.5545 264.821 96.9345C265.761 96.3145 266.231 95.4545 266.231 94.3545V91.6245C266.231 91.5445 266.191 91.5045 266.111 91.5045H262.661C261.241 91.5045 260.091 91.8045 259.211 92.4045C258.351 93.0045 257.921 93.8345 257.921 94.8945C257.921 95.8745 258.261 96.6145 258.941 97.1145C259.621 97.6145 260.491 97.8645 261.551 97.8645ZM277.574 79.4145C276.394 79.4145 275.584 79.6945 275.144 80.2545C274.724 80.8145 274.514 81.7245 274.514 82.9845V83.7645C274.514 83.8445 274.554 83.8845 274.634 83.8845H278.144C278.344 83.8845 278.444 83.9845 278.444 84.1845V85.0545C278.444 85.2545 278.344 85.3545 278.144 85.3545H274.634C274.554 85.3545 274.514 85.3945 274.514 85.4745V98.7045C274.514 98.9045 274.414 99.0045 274.214 99.0045H273.224C273.024 99.0045 272.924 98.9045 272.924 98.7045V85.4745C272.924 85.3945 272.884 85.3545 272.804 85.3545H270.824C270.624 85.3545 270.524 85.2545 270.524 85.0545V84.1845C270.524 83.9845 270.624 83.8845 270.824 83.8845H272.804C272.884 83.8845 272.924 83.8445 272.924 83.7645V82.9245C272.924 81.7445 273.054 80.8045 273.314 80.1045C273.594 79.4045 274.054 78.8845 274.694 78.5445C275.354 78.1845 276.274 78.0045 277.454 78.0045H278.234C278.434 78.0045 278.534 78.1045 278.534 78.3045V79.1145C278.534 79.3145 278.434 79.4145 278.234 79.4145H277.574ZM286.006 99.2445C284.606 99.2445 283.406 98.8745 282.406 98.1345C281.406 97.3945 280.726 96.4045 280.366 95.1645C280.146 94.3645 280.036 93.1145 280.036 91.4145C280.036 89.7145 280.146 88.4745 280.366 87.6945C280.726 86.4545 281.396 85.4745 282.376 84.7545C283.376 84.0145 284.596 83.6445 286.036 83.6445C287.436 83.6445 288.636 84.0145 289.636 84.7545C290.656 85.4945 291.336 86.4745 291.676 87.6945C291.796 88.1545 291.876 88.6745 291.916 89.2545C291.956 89.8145 291.976 90.5345 291.976 91.4145C291.976 92.3345 291.956 93.0745 291.916 93.6345C291.876 94.1945 291.796 94.7045 291.676 95.1645C291.336 96.4045 290.656 97.3945 289.636 98.1345C288.636 98.8745 287.426 99.2445 286.006 99.2445ZM286.006 97.8345C287.066 97.8345 287.966 97.5445 288.706 96.9645C289.466 96.3645 289.956 95.5845 290.176 94.6245C290.316 94.0845 290.386 93.0245 290.386 91.4445C290.386 89.8445 290.326 88.7845 290.206 88.2645C289.986 87.2845 289.496 86.5045 288.736 85.9245C287.996 85.3445 287.086 85.0545 286.006 85.0545C284.926 85.0545 284.016 85.3445 283.276 85.9245C282.536 86.5045 282.056 87.2845 281.836 88.2645C281.696 88.8845 281.626 89.9445 281.626 91.4445C281.626 92.9445 281.696 94.0045 281.836 94.6245C282.056 95.6045 282.536 96.3845 283.276 96.9645C284.016 97.5445 284.926 97.8345 286.006 97.8345ZM301.973 83.7645C302.653 83.7645 303.233 83.8845 303.713 84.1245C303.873 84.1845 303.933 84.3145 303.893 84.5145L303.623 85.4745C303.563 85.6745 303.433 85.7345 303.233 85.6545C302.833 85.4945 302.333 85.4245 301.733 85.4445C300.613 85.4645 299.683 85.8945 298.943 86.7345C298.223 87.5545 297.863 88.5645 297.863 89.7645V98.7045C297.863 98.9045 297.763 99.0045 297.563 99.0045H296.573C296.373 99.0045 296.273 98.9045 296.273 98.7045V84.1845C296.273 83.9845 296.373 83.8845 296.573 83.8845H297.563C297.763 83.8845 297.863 83.9845 297.863 84.1845V86.2245C297.863 86.2845 297.873 86.3245 297.893 86.3445C297.933 86.3445 297.963 86.3145 297.983 86.2545C298.403 85.4745 298.943 84.8645 299.603 84.4245C300.283 83.9845 301.073 83.7645 301.973 83.7645ZM321.611 83.6745C323.071 83.6745 324.241 84.1145 325.121 84.9945C326.001 85.8745 326.441 87.0845 326.441 88.6245V98.7045C326.441 98.9045 326.341 99.0045 326.141 99.0045H325.181C324.981 99.0045 324.881 98.9045 324.881 98.7045V88.9245C324.881 87.7445 324.531 86.8145 323.831 86.1345C323.151 85.4345 322.261 85.0845 321.161 85.0845C320.001 85.0845 319.061 85.4245 318.341 86.1045C317.641 86.7845 317.291 87.7045 317.291 88.8645V98.7045C317.291 98.9045 317.191 99.0045 316.991 99.0045H316.031C315.831 99.0045 315.731 98.9045 315.731 98.7045V88.9245C315.731 87.7445 315.391 86.8145 314.711 86.1345C314.031 85.4345 313.141 85.0845 312.041 85.0845C310.861 85.0845 309.921 85.4245 309.221 86.1045C308.541 86.7845 308.201 87.7045 308.201 88.8645V98.7045C308.201 98.9045 308.101 99.0045 307.901 99.0045H306.911C306.711 99.0045 306.611 98.9045 306.611 98.7045V84.1845C306.611 83.9845 306.711 83.8845 306.911 83.8845H307.901C308.101 83.8845 308.201 83.9845 308.201 84.1845V85.5345C308.201 85.5745 308.221 85.6045 308.261 85.6245C308.301 85.6445 308.331 85.6345 308.351 85.5945C308.771 84.9545 309.331 84.4745 310.031 84.1545C310.751 83.8345 311.561 83.6745 312.461 83.6745C313.501 83.6745 314.391 83.9045 315.131 84.3645C315.891 84.8045 316.461 85.4345 316.841 86.2545C316.881 86.3345 316.931 86.3445 316.991 86.2845C317.411 85.4245 318.021 84.7745 318.821 84.3345C319.621 83.8945 320.551 83.6745 321.611 83.6745ZM335.991 83.6445C337.751 83.6445 339.091 84.1045 340.011 85.0245C340.931 85.9245 341.391 87.1445 341.391 88.6845V98.7045C341.391 98.9045 341.291 99.0045 341.091 99.0045H340.101C339.901 99.0045 339.801 98.9045 339.801 98.7045V97.2945C339.801 97.2545 339.781 97.2245 339.741 97.2045C339.721 97.1845 339.691 97.1945 339.651 97.2345C339.131 97.8945 338.451 98.3945 337.611 98.7345C336.791 99.0745 335.871 99.2445 334.851 99.2445C333.471 99.2445 332.301 98.8945 331.341 98.1945C330.381 97.4945 329.901 96.4245 329.901 94.9845C329.901 93.5045 330.451 92.3345 331.551 91.4745C332.651 90.6145 334.161 90.1845 336.081 90.1845H339.681C339.761 90.1845 339.801 90.1445 339.801 90.0645V88.7145C339.801 87.5945 339.481 86.7045 338.841 86.0445C338.221 85.3845 337.261 85.0545 335.961 85.0545C334.941 85.0545 334.101 85.2645 333.441 85.6845C332.781 86.1045 332.371 86.6645 332.211 87.3645C332.151 87.5645 332.031 87.6545 331.851 87.6345L330.801 87.4845C330.581 87.4445 330.491 87.3645 330.531 87.2445C330.711 86.1645 331.291 85.2945 332.271 84.6345C333.271 83.9745 334.511 83.6445 335.991 83.6445ZM335.121 97.8645C336.381 97.8645 337.471 97.5545 338.391 96.9345C339.331 96.3145 339.801 95.4545 339.801 94.3545V91.6245C339.801 91.5445 339.761 91.5045 339.681 91.5045H336.231C334.811 91.5045 333.661 91.8045 332.781 92.4045C331.921 93.0045 331.491 93.8345 331.491 94.8945C331.491 95.8745 331.831 96.6145 332.511 97.1145C333.191 97.6145 334.061 97.8645 335.121 97.8645ZM356.284 83.6445C358.044 83.6445 359.384 84.1045 360.304 85.0245C361.224 85.9245 361.684 87.1445 361.684 88.6845V98.7045C361.684 98.9045 361.584 99.0045 361.384 99.0045H360.394C360.194 99.0045 360.094 98.9045 360.094 98.7045V97.2945C360.094 97.2545 360.074 97.2245 360.034 97.2045C360.014 97.1845 359.984 97.1945 359.944 97.2345C359.424 97.8945 358.744 98.3945 357.904 98.7345C357.084 99.0745 356.164 99.2445 355.144 99.2445C353.764 99.2445 352.594 98.8945 351.634 98.1945C350.674 97.4945 350.194 96.4245 350.194 94.9845C350.194 93.5045 350.744 92.3345 351.844 91.4745C352.944 90.6145 354.454 90.1845 356.374 90.1845H359.974C360.054 90.1845 360.094 90.1445 360.094 90.0645V88.7145C360.094 87.5945 359.774 86.7045 359.134 86.0445C358.514 85.3845 357.554 85.0545 356.254 85.0545C355.234 85.0545 354.394 85.2645 353.734 85.6845C353.074 86.1045 352.664 86.6645 352.504 87.3645C352.444 87.5645 352.324 87.6545 352.144 87.6345L351.094 87.4845C350.874 87.4445 350.784 87.3645 350.824 87.2445C351.004 86.1645 351.584 85.2945 352.564 84.6345C353.564 83.9745 354.804 83.6445 356.284 83.6445ZM355.414 97.8645C356.674 97.8645 357.764 97.5545 358.684 96.9345C359.624 96.3145 360.094 95.4545 360.094 94.3545V91.6245C360.094 91.5445 360.054 91.5045 359.974 91.5045H356.524C355.104 91.5045 353.954 91.8045 353.074 92.4045C352.214 93.0045 351.784 93.8345 351.784 94.8945C351.784 95.8745 352.124 96.6145 352.804 97.1145C353.484 97.6145 354.354 97.8645 355.414 97.8645ZM377.376 87.6345C377.516 88.0945 377.606 88.6145 377.646 89.1945C377.686 89.7545 377.706 90.4945 377.706 91.4145C377.706 92.3345 377.686 93.0845 377.646 93.6645C377.606 94.2245 377.526 94.7345 377.406 95.1945C377.106 96.4345 376.476 97.4245 375.516 98.1645C374.576 98.8845 373.406 99.2445 372.006 99.2445C371.126 99.2445 370.336 99.0745 369.636 98.7345C368.956 98.3745 368.406 97.8645 367.986 97.2045C367.946 97.1645 367.906 97.1545 367.866 97.1745C367.846 97.1745 367.836 97.2045 367.836 97.2645V104.585C367.836 104.785 367.736 104.885 367.536 104.885H366.546C366.346 104.885 366.246 104.785 366.246 104.585V84.1845C366.246 83.9845 366.346 83.8845 366.546 83.8845H367.536C367.736 83.8845 367.836 83.9845 367.836 84.1845V85.6245C367.836 85.6845 367.846 85.7245 367.866 85.7445C367.906 85.7445 367.946 85.7245 367.986 85.6845C368.406 85.0245 368.956 84.5245 369.636 84.1845C370.336 83.8245 371.126 83.6445 372.006 83.6445C373.366 83.6445 374.516 84.0045 375.456 84.7245C376.396 85.4445 377.036 86.4145 377.376 87.6345ZM375.696 94.9545C375.856 94.5945 375.966 94.1745 376.026 93.6945C376.086 93.2145 376.116 92.4645 376.116 91.4445C376.116 90.4045 376.086 89.6545 376.026 89.1945C375.966 88.7145 375.866 88.2745 375.726 87.8745C375.526 87.0345 375.076 86.3545 374.376 85.8345C373.676 85.3145 372.836 85.0545 371.856 85.0545C370.916 85.0545 370.126 85.3245 369.486 85.8645C368.866 86.3845 368.446 87.0545 368.226 87.8745C368.086 88.2345 367.986 88.6545 367.926 89.1345C367.866 89.6145 367.836 90.3845 367.836 91.4445C367.836 92.5045 367.866 93.2745 367.926 93.7545C367.986 94.2345 368.086 94.6745 368.226 95.0745C368.446 95.8945 368.866 96.5645 369.486 97.0845C370.126 97.5845 370.916 97.8345 371.856 97.8345C372.776 97.8345 373.566 97.6045 374.226 97.1445C374.886 96.6645 375.336 96.0445 375.576 95.2845L375.696 94.9545ZM387.403 97.8345C388.343 97.8345 389.143 97.6245 389.803 97.2045C390.483 96.7645 391.013 96.1645 391.393 95.4045C391.493 95.2245 391.623 95.1745 391.783 95.2545L392.563 95.6445C392.743 95.7445 392.793 95.8745 392.713 96.0345C392.273 97.0145 391.573 97.7945 390.613 98.3745C389.673 98.9545 388.563 99.2445 387.283 99.2445C385.883 99.2445 384.693 98.9045 383.713 98.2245C382.733 97.5445 382.063 96.6145 381.703 95.4345C381.543 94.9345 381.433 94.3745 381.373 93.7545C381.313 93.1345 381.283 92.3545 381.283 91.4145C381.283 90.4345 381.293 89.6945 381.313 89.1945C381.353 88.6945 381.423 88.2345 381.523 87.8145C381.843 86.5545 382.493 85.5445 383.473 84.7845C384.473 84.0245 385.693 83.6445 387.133 83.6445C388.773 83.6445 390.083 84.0745 391.063 84.9345C392.043 85.7745 392.653 86.9445 392.893 88.4445C392.953 88.8245 392.993 89.2745 393.013 89.7945C393.033 90.2945 393.043 90.9245 393.043 91.6845C393.043 91.8845 392.943 91.9845 392.743 91.9845H382.963C382.883 91.9845 382.843 92.0245 382.843 92.1045C382.843 93.3845 382.893 94.2345 382.993 94.6545C383.213 95.6345 383.703 96.4145 384.463 96.9945C385.243 97.5545 386.223 97.8345 387.403 97.8345ZM383.053 88.1745C382.953 88.5545 382.883 89.3345 382.843 90.5145C382.843 90.5945 382.883 90.6345 382.963 90.6345H391.333C391.413 90.6345 391.453 90.5945 391.453 90.5145C391.453 89.5145 391.403 88.7645 391.303 88.2645C391.083 87.3045 390.603 86.5345 389.863 85.9545C389.123 85.3545 388.213 85.0545 387.133 85.0545C386.053 85.0545 385.153 85.3445 384.433 85.9245C383.713 86.4845 383.253 87.2345 383.053 88.1745ZM402.927 83.7645C403.607 83.7645 404.187 83.8845 404.667 84.1245C404.827 84.1845 404.887 84.3145 404.847 84.5145L404.577 85.4745C404.517 85.6745 404.387 85.7345 404.187 85.6545C403.787 85.4945 403.287 85.4245 402.687 85.4445C401.567 85.4645 400.637 85.8945 399.897 86.7345C399.177 87.5545 398.817 88.5645 398.817 89.7645V98.7045C398.817 98.9045 398.717 99.0045 398.517 99.0045H397.527C397.327 99.0045 397.227 98.9045 397.227 98.7045V84.1845C397.227 83.9845 397.327 83.8845 397.527 83.8845H398.517C398.717 83.8845 398.817 83.9845 398.817 84.1845V86.2245C398.817 86.2845 398.827 86.3245 398.847 86.3445C398.887 86.3445 398.917 86.3145 398.937 86.2545C399.357 85.4745 399.897 84.8645 400.557 84.4245C401.237 83.9845 402.027 83.7645 402.927 83.7645ZM414.333 84.9345C414.333 85.1345 414.233 85.2345 414.033 85.2345H410.523C410.443 85.2345 410.403 85.2745 410.403 85.3545V94.8345C410.403 95.8545 410.633 96.5745 411.093 96.9945C411.553 97.3945 412.293 97.5945 413.313 97.5945H414.003C414.203 97.5945 414.303 97.6945 414.303 97.8945V98.7045C414.303 98.9045 414.203 99.0045 414.003 99.0045L413.103 99.0345C411.703 99.0345 410.643 98.7645 409.923 98.2245C409.223 97.6845 408.863 96.6945 408.843 95.2545V85.3545C408.843 85.2745 408.803 85.2345 408.723 85.2345H406.923C406.723 85.2345 406.623 85.1345 406.623 84.9345V84.1845C406.623 83.9845 406.723 83.8845 406.923 83.8845H408.723C408.803 83.8845 408.843 83.8445 408.843 83.7645V80.3445C408.843 80.1445 408.943 80.0445 409.143 80.0445H410.103C410.303 80.0445 410.403 80.1445 410.403 80.3445V83.7645C410.403 83.8445 410.443 83.8845 410.523 83.8845H414.033C414.233 83.8845 414.333 83.9845 414.333 84.1845V84.9345ZM423.38 83.6445C425.14 83.6445 426.48 84.1045 427.4 85.0245C428.32 85.9245 428.78 87.1445 428.78 88.6845V98.7045C428.78 98.9045 428.68 99.0045 428.48 99.0045H427.49C427.29 99.0045 427.19 98.9045 427.19 98.7045V97.2945C427.19 97.2545 427.17 97.2245 427.13 97.2045C427.11 97.1845 427.08 97.1945 427.04 97.2345C426.52 97.8945 425.84 98.3945 425 98.7345C424.18 99.0745 423.26 99.2445 422.24 99.2445C420.86 99.2445 419.69 98.8945 418.73 98.1945C417.77 97.4945 417.29 96.4245 417.29 94.9845C417.29 93.5045 417.84 92.3345 418.94 91.4745C420.04 90.6145 421.55 90.1845 423.47 90.1845H427.07C427.15 90.1845 427.19 90.1445 427.19 90.0645V88.7145C427.19 87.5945 426.87 86.7045 426.23 86.0445C425.61 85.3845 424.65 85.0545 423.35 85.0545C422.33 85.0545 421.49 85.2645 420.83 85.6845C420.17 86.1045 419.76 86.6645 419.6 87.3645C419.54 87.5645 419.42 87.6545 419.24 87.6345L418.19 87.4845C417.97 87.4445 417.88 87.3645 417.92 87.2445C418.1 86.1645 418.68 85.2945 419.66 84.6345C420.66 83.9745 421.9 83.6445 423.38 83.6445ZM422.51 97.8645C423.77 97.8645 424.86 97.5545 425.78 96.9345C426.72 96.3145 427.19 95.4545 427.19 94.3545V91.6245C427.19 91.5445 427.15 91.5045 427.07 91.5045H423.62C422.2 91.5045 421.05 91.8045 420.17 92.4045C419.31 93.0045 418.88 93.8345 418.88 94.8945C418.88 95.8745 419.22 96.6145 419.9 97.1145C420.58 97.6145 421.45 97.8645 422.51 97.8645ZM450.033 87.6345C450.173 88.0945 450.263 88.6145 450.303 89.1945C450.343 89.7545 450.363 90.4945 450.363 91.4145C450.363 92.3345 450.343 93.0845 450.303 93.6645C450.263 94.2245 450.183 94.7345 450.063 95.1945C449.763 96.4345 449.133 97.4245 448.173 98.1645C447.233 98.8845 446.063 99.2445 444.663 99.2445C443.783 99.2445 442.993 99.0745 442.293 98.7345C441.613 98.3745 441.063 97.8645 440.643 97.2045C440.603 97.1645 440.563 97.1545 440.523 97.1745C440.503 97.1745 440.493 97.2045 440.493 97.2645V104.585C440.493 104.785 440.393 104.885 440.193 104.885H439.203C439.003 104.885 438.903 104.785 438.903 104.585V84.1845C438.903 83.9845 439.003 83.8845 439.203 83.8845H440.193C440.393 83.8845 440.493 83.9845 440.493 84.1845V85.6245C440.493 85.6845 440.503 85.7245 440.523 85.7445C440.563 85.7445 440.603 85.7245 440.643 85.6845C441.063 85.0245 441.613 84.5245 442.293 84.1845C442.993 83.8245 443.783 83.6445 444.663 83.6445C446.023 83.6445 447.173 84.0045 448.113 84.7245C449.053 85.4445 449.693 86.4145 450.033 87.6345ZM448.353 94.9545C448.513 94.5945 448.623 94.1745 448.683 93.6945C448.743 93.2145 448.773 92.4645 448.773 91.4445C448.773 90.4045 448.743 89.6545 448.683 89.1945C448.623 88.7145 448.523 88.2745 448.383 87.8745C448.183 87.0345 447.733 86.3545 447.033 85.8345C446.333 85.3145 445.493 85.0545 444.513 85.0545C443.573 85.0545 442.783 85.3245 442.143 85.8645C441.523 86.3845 441.103 87.0545 440.883 87.8745C440.743 88.2345 440.643 88.6545 440.583 89.1345C440.523 89.6145 440.493 90.3845 440.493 91.4445C440.493 92.5045 440.523 93.2745 440.583 93.7545C440.643 94.2345 440.743 94.6745 440.883 95.0745C441.103 95.8945 441.523 96.5645 442.143 97.0845C442.783 97.5845 443.573 97.8345 444.513 97.8345C445.433 97.8345 446.223 97.6045 446.883 97.1445C447.543 96.6645 447.993 96.0445 448.233 95.2845L448.353 94.9545ZM460.06 97.8345C461 97.8345 461.8 97.6245 462.46 97.2045C463.14 96.7645 463.67 96.1645 464.05 95.4045C464.15 95.2245 464.28 95.1745 464.44 95.2545L465.22 95.6445C465.4 95.7445 465.45 95.8745 465.37 96.0345C464.93 97.0145 464.23 97.7945 463.27 98.3745C462.33 98.9545 461.22 99.2445 459.94 99.2445C458.54 99.2445 457.35 98.9045 456.37 98.2245C455.39 97.5445 454.72 96.6145 454.36 95.4345C454.2 94.9345 454.09 94.3745 454.03 93.7545C453.97 93.1345 453.94 92.3545 453.94 91.4145C453.94 90.4345 453.95 89.6945 453.97 89.1945C454.01 88.6945 454.08 88.2345 454.18 87.8145C454.5 86.5545 455.15 85.5445 456.13 84.7845C457.13 84.0245 458.35 83.6445 459.79 83.6445C461.43 83.6445 462.74 84.0745 463.72 84.9345C464.7 85.7745 465.31 86.9445 465.55 88.4445C465.61 88.8245 465.65 89.2745 465.67 89.7945C465.69 90.2945 465.7 90.9245 465.7 91.6845C465.7 91.8845 465.6 91.9845 465.4 91.9845H455.62C455.54 91.9845 455.5 92.0245 455.5 92.1045C455.5 93.3845 455.55 94.2345 455.65 94.6545C455.87 95.6345 456.36 96.4145 457.12 96.9945C457.9 97.5545 458.88 97.8345 460.06 97.8345ZM455.71 88.1745C455.61 88.5545 455.54 89.3345 455.5 90.5145C455.5 90.5945 455.54 90.6345 455.62 90.6345H463.99C464.07 90.6345 464.11 90.5945 464.11 90.5145C464.11 89.5145 464.06 88.7645 463.96 88.2645C463.74 87.3045 463.26 86.5345 462.52 85.9545C461.78 85.3545 460.87 85.0545 459.79 85.0545C458.71 85.0545 457.81 85.3445 457.09 85.9245C456.37 86.4845 455.91 87.2345 455.71 88.1745ZM475.584 83.7645C476.264 83.7645 476.844 83.8845 477.324 84.1245C477.484 84.1845 477.544 84.3145 477.504 84.5145L477.234 85.4745C477.174 85.6745 477.044 85.7345 476.844 85.6545C476.444 85.4945 475.944 85.4245 475.344 85.4445C474.224 85.4645 473.294 85.8945 472.554 86.7345C471.834 87.5545 471.474 88.5645 471.474 89.7645V98.7045C471.474 98.9045 471.374 99.0045 471.174 99.0045H470.184C469.984 99.0045 469.884 98.9045 469.884 98.7045V84.1845C469.884 83.9845 469.984 83.8845 470.184 83.8845H471.174C471.374 83.8845 471.474 83.9845 471.474 84.1845V86.2245C471.474 86.2845 471.484 86.3245 471.504 86.3445C471.544 86.3445 471.574 86.3145 471.594 86.2545C472.014 85.4745 472.554 84.8645 473.214 84.4245C473.894 83.9845 474.684 83.7645 475.584 83.7645ZM486.083 99.0045C485.883 99.0045 485.783 98.9045 485.783 98.7045V78.3045C485.783 78.1045 485.883 78.0045 486.083 78.0045H487.073C487.273 78.0045 487.373 78.1045 487.373 78.3045V98.7045C487.373 98.9045 487.273 99.0045 487.073 99.0045H486.083ZM497.116 83.6445C498.876 83.6445 500.216 84.1045 501.136 85.0245C502.056 85.9245 502.516 87.1445 502.516 88.6845V98.7045C502.516 98.9045 502.416 99.0045 502.216 99.0045H501.226C501.026 99.0045 500.926 98.9045 500.926 98.7045V97.2945C500.926 97.2545 500.906 97.2245 500.866 97.2045C500.846 97.1845 500.816 97.1945 500.776 97.2345C500.256 97.8945 499.576 98.3945 498.736 98.7345C497.916 99.0745 496.996 99.2445 495.976 99.2445C494.596 99.2445 493.426 98.8945 492.466 98.1945C491.506 97.4945 491.026 96.4245 491.026 94.9845C491.026 93.5045 491.576 92.3345 492.676 91.4745C493.776 90.6145 495.286 90.1845 497.206 90.1845H500.806C500.886 90.1845 500.926 90.1445 500.926 90.0645V88.7145C500.926 87.5945 500.606 86.7045 499.966 86.0445C499.346 85.3845 498.386 85.0545 497.086 85.0545C496.066 85.0545 495.226 85.2645 494.566 85.6845C493.906 86.1045 493.496 86.6645 493.336 87.3645C493.276 87.5645 493.156 87.6545 492.976 87.6345L491.926 87.4845C491.706 87.4445 491.616 87.3645 491.656 87.2445C491.836 86.1645 492.416 85.2945 493.396 84.6345C494.396 83.9745 495.636 83.6445 497.116 83.6445ZM496.246 97.8645C497.506 97.8645 498.596 97.5545 499.516 96.9345C500.456 96.3145 500.926 95.4545 500.926 94.3545V91.6245C500.926 91.5445 500.886 91.5045 500.806 91.5045H497.356C495.936 91.5045 494.786 91.8045 493.906 92.4045C493.046 93.0045 492.616 93.8345 492.616 94.8945C492.616 95.8745 492.956 96.6145 493.636 97.1145C494.316 97.6145 495.186 97.8645 496.246 97.8645ZM207.03 114.305C207.03 114.105 207.13 114.005 207.33 114.005H208.32C208.52 114.005 208.62 114.105 208.62 114.305V134.705C208.62 134.905 208.52 135.005 208.32 135.005H207.33C207.13 135.005 207.03 134.905 207.03 134.705V133.235C207.03 133.175 207.01 133.145 206.97 133.145C206.95 133.125 206.92 133.135 206.88 133.175C206.46 133.835 205.9 134.345 205.2 134.705C204.5 135.065 203.71 135.245 202.83 135.245C201.47 135.245 200.32 134.885 199.38 134.165C198.44 133.445 197.8 132.475 197.46 131.255C197.32 130.795 197.23 130.285 197.19 129.725C197.15 129.145 197.13 128.395 197.13 127.475C197.13 126.575 197.15 125.835 197.19 125.255C197.23 124.675 197.31 124.155 197.43 123.695C197.73 122.455 198.35 121.475 199.29 120.755C200.25 120.015 201.43 119.645 202.83 119.645C203.71 119.645 204.5 119.825 205.2 120.185C205.9 120.545 206.46 121.055 206.88 121.715C206.9 121.775 206.93 121.805 206.97 121.805C207.01 121.785 207.03 121.745 207.03 121.685V114.305ZM206.64 131.015C206.78 130.635 206.87 130.205 206.91 129.725C206.97 129.245 207 128.495 207 127.475C207 126.415 206.97 125.645 206.91 125.165C206.85 124.665 206.75 124.215 206.61 123.815C206.39 122.995 205.96 122.335 205.32 121.835C204.7 121.315 203.93 121.055 203.01 121.055C202.07 121.055 201.26 121.315 200.58 121.835C199.9 122.335 199.44 122.985 199.2 123.785C199.02 124.165 198.89 124.605 198.81 125.105C198.75 125.585 198.72 126.365 198.72 127.445C198.72 128.485 198.75 129.245 198.81 129.725C198.87 130.185 198.97 130.615 199.11 131.015C199.31 131.855 199.76 132.535 200.46 133.055C201.16 133.575 202 133.835 202.98 133.835C203.92 133.835 204.7 133.575 205.32 133.055C205.96 132.535 206.4 131.855 206.64 131.015ZM219.036 133.835C219.976 133.835 220.776 133.625 221.436 133.205C222.116 132.765 222.646 132.165 223.026 131.405C223.126 131.225 223.256 131.175 223.416 131.255L224.196 131.645C224.376 131.745 224.426 131.875 224.346 132.035C223.906 133.015 223.206 133.795 222.246 134.375C221.306 134.955 220.196 135.245 218.916 135.245C217.516 135.245 216.326 134.905 215.346 134.225C214.366 133.545 213.696 132.615 213.336 131.435C213.176 130.935 213.066 130.375 213.006 129.755C212.946 129.135 212.916 128.355 212.916 127.415C212.916 126.435 212.926 125.695 212.946 125.195C212.986 124.695 213.056 124.235 213.156 123.815C213.476 122.555 214.126 121.545 215.106 120.785C216.106 120.025 217.326 119.645 218.766 119.645C220.406 119.645 221.716 120.075 222.696 120.935C223.676 121.775 224.286 122.945 224.526 124.445C224.586 124.825 224.626 125.275 224.646 125.795C224.666 126.295 224.676 126.925 224.676 127.685C224.676 127.885 224.576 127.985 224.376 127.985H214.596C214.516 127.985 214.476 128.025 214.476 128.105C214.476 129.385 214.526 130.235 214.626 130.655C214.846 131.635 215.336 132.415 216.096 132.995C216.876 133.555 217.856 133.835 219.036 133.835ZM214.686 124.175C214.586 124.555 214.516 125.335 214.476 126.515C214.476 126.595 214.516 126.635 214.596 126.635H222.966C223.046 126.635 223.086 126.595 223.086 126.515C223.086 125.515 223.036 124.765 222.936 124.265C222.716 123.305 222.236 122.535 221.496 121.955C220.756 121.355 219.846 121.055 218.766 121.055C217.686 121.055 216.786 121.345 216.066 121.925C215.346 122.485 214.886 123.235 214.686 124.175ZM243.86 119.675C245.32 119.675 246.49 120.115 247.37 120.995C248.25 121.875 248.69 123.085 248.69 124.625V134.705C248.69 134.905 248.59 135.005 248.39 135.005H247.43C247.23 135.005 247.13 134.905 247.13 134.705V124.925C247.13 123.745 246.78 122.815 246.08 122.135C245.4 121.435 244.51 121.085 243.41 121.085C242.25 121.085 241.31 121.425 240.59 122.105C239.89 122.785 239.54 123.705 239.54 124.865V134.705C239.54 134.905 239.44 135.005 239.24 135.005H238.28C238.08 135.005 237.98 134.905 237.98 134.705V124.925C237.98 123.745 237.64 122.815 236.96 122.135C236.28 121.435 235.39 121.085 234.29 121.085C233.11 121.085 232.17 121.425 231.47 122.105C230.79 122.785 230.45 123.705 230.45 124.865V134.705C230.45 134.905 230.35 135.005 230.15 135.005H229.16C228.96 135.005 228.86 134.905 228.86 134.705V120.185C228.86 119.985 228.96 119.885 229.16 119.885H230.15C230.35 119.885 230.45 119.985 230.45 120.185V121.535C230.45 121.575 230.47 121.605 230.51 121.625C230.55 121.645 230.58 121.635 230.6 121.595C231.02 120.955 231.58 120.475 232.28 120.155C233 119.835 233.81 119.675 234.71 119.675C235.75 119.675 236.64 119.905 237.38 120.365C238.14 120.805 238.71 121.435 239.09 122.255C239.13 122.335 239.18 122.345 239.24 122.285C239.66 121.425 240.27 120.775 241.07 120.335C241.87 119.895 242.8 119.675 243.86 119.675ZM258.456 135.245C257.056 135.245 255.856 134.875 254.856 134.135C253.856 133.395 253.176 132.405 252.816 131.165C252.596 130.365 252.486 129.115 252.486 127.415C252.486 125.715 252.596 124.475 252.816 123.695C253.176 122.455 253.846 121.475 254.826 120.755C255.826 120.015 257.046 119.645 258.486 119.645C259.886 119.645 261.086 120.015 262.086 120.755C263.106 121.495 263.786 122.475 264.126 123.695C264.246 124.155 264.326 124.675 264.366 125.255C264.406 125.815 264.426 126.535 264.426 127.415C264.426 128.335 264.406 129.075 264.366 129.635C264.326 130.195 264.246 130.705 264.126 131.165C263.786 132.405 263.106 133.395 262.086 134.135C261.086 134.875 259.876 135.245 258.456 135.245ZM258.456 133.835C259.516 133.835 260.416 133.545 261.156 132.965C261.916 132.365 262.406 131.585 262.626 130.625C262.766 130.085 262.836 129.025 262.836 127.445C262.836 125.845 262.776 124.785 262.656 124.265C262.436 123.285 261.946 122.505 261.186 121.925C260.446 121.345 259.536 121.055 258.456 121.055C257.376 121.055 256.466 121.345 255.726 121.925C254.986 122.505 254.506 123.285 254.286 124.265C254.146 124.885 254.076 125.945 254.076 127.445C254.076 128.945 254.146 130.005 254.286 130.625C254.506 131.605 254.986 132.385 255.726 132.965C256.466 133.545 257.376 133.835 258.456 133.835ZM274.214 135.245C272.794 135.245 271.584 134.875 270.584 134.135C269.604 133.395 268.944 132.405 268.604 131.165C268.344 130.205 268.214 128.955 268.214 127.415C268.214 125.935 268.344 124.695 268.604 123.695C268.924 122.475 269.584 121.495 270.584 120.755C271.584 120.015 272.794 119.645 274.214 119.645C275.634 119.645 276.854 120.005 277.874 120.725C278.914 121.445 279.574 122.345 279.854 123.425C279.934 123.705 279.994 123.985 280.034 124.265V124.325C280.034 124.465 279.944 124.555 279.764 124.595L278.804 124.715H278.744C278.604 124.715 278.514 124.625 278.474 124.445L278.384 124.025C278.204 123.185 277.734 122.485 276.974 121.925C276.214 121.345 275.294 121.055 274.214 121.055C273.114 121.055 272.194 121.345 271.454 121.925C270.734 122.505 270.274 123.275 270.074 124.235C269.894 124.995 269.804 126.065 269.804 127.445C269.804 128.845 269.894 129.905 270.074 130.625C270.274 131.605 270.734 132.385 271.454 132.965C272.194 133.545 273.114 133.835 274.214 133.835C275.294 133.835 276.214 133.555 276.974 132.995C277.754 132.415 278.224 131.695 278.384 130.835L278.414 130.685C278.454 130.465 278.574 130.375 278.774 130.415L279.704 130.565C279.904 130.605 279.994 130.715 279.974 130.895L279.854 131.435C279.574 132.555 278.914 133.475 277.874 134.195C276.854 134.895 275.634 135.245 274.214 135.245ZM289.449 119.765C290.129 119.765 290.709 119.885 291.189 120.125C291.349 120.185 291.409 120.315 291.369 120.515L291.099 121.475C291.039 121.675 290.909 121.735 290.709 121.655C290.309 121.495 289.809 121.425 289.209 121.445C288.089 121.465 287.159 121.895 286.419 122.735C285.699 123.555 285.339 124.565 285.339 125.765V134.705C285.339 134.905 285.239 135.005 285.039 135.005H284.049C283.849 135.005 283.749 134.905 283.749 134.705V120.185C283.749 119.985 283.849 119.885 284.049 119.885H285.039C285.239 119.885 285.339 119.985 285.339 120.185V122.225C285.339 122.285 285.349 122.325 285.369 122.345C285.409 122.345 285.439 122.315 285.459 122.255C285.879 121.475 286.419 120.865 287.079 120.425C287.759 119.985 288.549 119.765 289.449 119.765ZM299.066 119.645C300.826 119.645 302.166 120.105 303.086 121.025C304.006 121.925 304.466 123.145 304.466 124.685V134.705C304.466 134.905 304.366 135.005 304.166 135.005H303.176C302.976 135.005 302.876 134.905 302.876 134.705V133.295C302.876 133.255 302.856 133.225 302.816 133.205C302.796 133.185 302.766 133.195 302.726 133.235C302.206 133.895 301.526 134.395 300.686 134.735C299.866 135.075 298.946 135.245 297.926 135.245C296.546 135.245 295.376 134.895 294.416 134.195C293.456 133.495 292.976 132.425 292.976 130.985C292.976 129.505 293.526 128.335 294.626 127.475C295.726 126.615 297.236 126.185 299.156 126.185H302.756C302.836 126.185 302.876 126.145 302.876 126.065V124.715C302.876 123.595 302.556 122.705 301.916 122.045C301.296 121.385 300.336 121.055 299.036 121.055C298.016 121.055 297.176 121.265 296.516 121.685C295.856 122.105 295.446 122.665 295.286 123.365C295.226 123.565 295.106 123.655 294.926 123.635L293.876 123.485C293.656 123.445 293.566 123.365 293.606 123.245C293.786 122.165 294.366 121.295 295.346 120.635C296.346 119.975 297.586 119.645 299.066 119.645ZM298.196 133.865C299.456 133.865 300.546 133.555 301.466 132.935C302.406 132.315 302.876 131.455 302.876 130.355V127.625C302.876 127.545 302.836 127.505 302.756 127.505H299.306C297.886 127.505 296.736 127.805 295.856 128.405C294.996 129.005 294.566 129.835 294.566 130.895C294.566 131.875 294.906 132.615 295.586 133.115C296.266 133.615 297.136 133.865 298.196 133.865ZM307.558 135.005C307.358 135.005 307.258 134.905 307.258 134.705V133.745C307.258 133.585 307.298 133.455 307.378 133.355L316.318 121.505C316.358 121.465 316.368 121.435 316.348 121.415C316.328 121.375 316.298 121.355 316.258 121.355H307.678C307.478 121.355 307.378 121.255 307.378 121.055V120.185C307.378 119.985 307.478 119.885 307.678 119.885H317.998C318.198 119.885 318.298 119.985 318.298 120.185V121.145C318.298 121.305 318.258 121.435 318.178 121.535L309.148 133.385C309.108 133.425 309.098 133.465 309.118 133.505C309.138 133.525 309.168 133.535 309.208 133.535H317.968C318.168 133.535 318.268 133.635 318.268 133.835V134.705C318.268 134.905 318.168 135.005 317.968 135.005H307.558ZM322.845 116.855C322.405 116.855 322.045 116.715 321.765 116.435C321.485 116.155 321.345 115.795 321.345 115.355C321.345 114.915 321.485 114.555 321.765 114.275C322.045 113.995 322.405 113.855 322.845 113.855C323.285 113.855 323.645 113.995 323.925 114.275C324.205 114.555 324.345 114.915 324.345 115.355C324.345 115.795 324.205 116.155 323.925 116.435C323.645 116.715 323.285 116.855 322.845 116.855ZM322.275 134.975C322.075 134.975 321.975 134.875 321.975 134.675V120.155C321.975 119.955 322.075 119.855 322.275 119.855H323.265C323.465 119.855 323.565 119.955 323.565 120.155V134.675C323.565 134.875 323.465 134.975 323.265 134.975H322.275ZM333.857 119.645C335.617 119.645 336.957 120.105 337.877 121.025C338.797 121.925 339.257 123.145 339.257 124.685V134.705C339.257 134.905 339.157 135.005 338.957 135.005H337.967C337.767 135.005 337.667 134.905 337.667 134.705V133.295C337.667 133.255 337.647 133.225 337.607 133.205C337.587 133.185 337.557 133.195 337.517 133.235C336.997 133.895 336.317 134.395 335.477 134.735C334.657 135.075 333.737 135.245 332.717 135.245C331.337 135.245 330.167 134.895 329.207 134.195C328.247 133.495 327.767 132.425 327.767 130.985C327.767 129.505 328.317 128.335 329.417 127.475C330.517 126.615 332.027 126.185 333.947 126.185H337.547C337.627 126.185 337.667 126.145 337.667 126.065V124.715C337.667 123.595 337.347 122.705 336.707 122.045C336.087 121.385 335.127 121.055 333.827 121.055C332.807 121.055 331.967 121.265 331.307 121.685C330.647 122.105 330.237 122.665 330.077 123.365C330.017 123.565 329.897 123.655 329.717 123.635L328.667 123.485C328.447 123.445 328.357 123.365 328.397 123.245C328.577 122.165 329.157 121.295 330.137 120.635C331.137 119.975 332.377 119.645 333.857 119.645ZM332.987 133.865C334.247 133.865 335.337 133.555 336.257 132.935C337.197 132.315 337.667 131.455 337.667 130.355V127.625C337.667 127.545 337.627 127.505 337.547 127.505H334.097C332.677 127.505 331.527 127.805 330.647 128.405C329.787 129.005 329.357 129.835 329.357 130.895C329.357 131.875 329.697 132.615 330.377 133.115C331.057 133.615 331.927 133.865 332.987 133.865ZM360.51 123.635C360.65 124.095 360.74 124.615 360.78 125.195C360.82 125.755 360.84 126.495 360.84 127.415C360.84 128.335 360.82 129.085 360.78 129.665C360.74 130.225 360.66 130.735 360.54 131.195C360.24 132.435 359.61 133.425 358.65 134.165C357.71 134.885 356.54 135.245 355.14 135.245C354.26 135.245 353.47 135.075 352.77 134.735C352.09 134.375 351.54 133.865 351.12 133.205C351.08 133.165 351.04 133.155 351 133.175C350.98 133.175 350.97 133.205 350.97 133.265V140.585C350.97 140.785 350.87 140.885 350.67 140.885H349.68C349.48 140.885 349.38 140.785 349.38 140.585V120.185C349.38 119.985 349.48 119.885 349.68 119.885H350.67C350.87 119.885 350.97 119.985 350.97 120.185V121.625C350.97 121.685 350.98 121.725 351 121.745C351.04 121.745 351.08 121.725 351.12 121.685C351.54 121.025 352.09 120.525 352.77 120.185C353.47 119.825 354.26 119.645 355.14 119.645C356.5 119.645 357.65 120.005 358.59 120.725C359.53 121.445 360.17 122.415 360.51 123.635ZM358.83 130.955C358.99 130.595 359.1 130.175 359.16 129.695C359.22 129.215 359.25 128.465 359.25 127.445C359.25 126.405 359.22 125.655 359.16 125.195C359.1 124.715 359 124.275 358.86 123.875C358.66 123.035 358.21 122.355 357.51 121.835C356.81 121.315 355.97 121.055 354.99 121.055C354.05 121.055 353.26 121.325 352.62 121.865C352 122.385 351.58 123.055 351.36 123.875C351.22 124.235 351.12 124.655 351.06 125.135C351 125.615 350.97 126.385 350.97 127.445C350.97 128.505 351 129.275 351.06 129.755C351.12 130.235 351.22 130.675 351.36 131.075C351.58 131.895 352 132.565 352.62 133.085C353.26 133.585 354.05 133.835 354.99 133.835C355.91 133.835 356.7 133.605 357.36 133.145C358.02 132.665 358.47 132.045 358.71 131.285L358.83 130.955ZM370.142 119.645C371.902 119.645 373.242 120.105 374.162 121.025C375.082 121.925 375.542 123.145 375.542 124.685V134.705C375.542 134.905 375.442 135.005 375.242 135.005H374.252C374.052 135.005 373.952 134.905 373.952 134.705V133.295C373.952 133.255 373.932 133.225 373.892 133.205C373.872 133.185 373.842 133.195 373.802 133.235C373.282 133.895 372.602 134.395 371.762 134.735C370.942 135.075 370.022 135.245 369.002 135.245C367.622 135.245 366.452 134.895 365.492 134.195C364.532 133.495 364.052 132.425 364.052 130.985C364.052 129.505 364.602 128.335 365.702 127.475C366.802 126.615 368.312 126.185 370.232 126.185H373.832C373.912 126.185 373.952 126.145 373.952 126.065V124.715C373.952 123.595 373.632 122.705 372.992 122.045C372.372 121.385 371.412 121.055 370.112 121.055C369.092 121.055 368.252 121.265 367.592 121.685C366.932 122.105 366.522 122.665 366.362 123.365C366.302 123.565 366.182 123.655 366.002 123.635L364.952 123.485C364.732 123.445 364.642 123.365 364.682 123.245C364.862 122.165 365.442 121.295 366.422 120.635C367.422 119.975 368.662 119.645 370.142 119.645ZM369.272 133.865C370.532 133.865 371.622 133.555 372.542 132.935C373.482 132.315 373.952 131.455 373.952 130.355V127.625C373.952 127.545 373.912 127.505 373.832 127.505H370.382C368.962 127.505 367.812 127.805 366.932 128.405C366.072 129.005 365.642 129.835 365.642 130.895C365.642 131.875 365.982 132.615 366.662 133.115C367.342 133.615 368.212 133.865 369.272 133.865ZM385.563 119.765C386.243 119.765 386.823 119.885 387.303 120.125C387.463 120.185 387.523 120.315 387.483 120.515L387.213 121.475C387.153 121.675 387.023 121.735 386.823 121.655C386.423 121.495 385.923 121.425 385.323 121.445C384.203 121.465 383.273 121.895 382.533 122.735C381.813 123.555 381.453 124.565 381.453 125.765V134.705C381.453 134.905 381.353 135.005 381.153 135.005H380.163C379.963 135.005 379.863 134.905 379.863 134.705V120.185C379.863 119.985 379.963 119.885 380.163 119.885H381.153C381.353 119.885 381.453 119.985 381.453 120.185V122.225C381.453 122.285 381.463 122.325 381.483 122.345C381.523 122.345 381.553 122.315 381.573 122.255C381.993 121.475 382.533 120.865 383.193 120.425C383.873 119.985 384.663 119.765 385.563 119.765ZM396.969 120.935C396.969 121.135 396.869 121.235 396.669 121.235H393.159C393.079 121.235 393.039 121.275 393.039 121.355V130.835C393.039 131.855 393.269 132.575 393.729 132.995C394.189 133.395 394.929 133.595 395.949 133.595H396.639C396.839 133.595 396.939 133.695 396.939 133.895V134.705C396.939 134.905 396.839 135.005 396.639 135.005L395.739 135.035C394.339 135.035 393.279 134.765 392.559 134.225C391.859 133.685 391.499 132.695 391.479 131.255V121.355C391.479 121.275 391.439 121.235 391.359 121.235H389.559C389.359 121.235 389.259 121.135 389.259 120.935V120.185C389.259 119.985 389.359 119.885 389.559 119.885H391.359C391.439 119.885 391.479 119.845 391.479 119.765V116.345C391.479 116.145 391.579 116.045 391.779 116.045H392.739C392.939 116.045 393.039 116.145 393.039 116.345V119.765C393.039 119.845 393.079 119.885 393.159 119.885H396.669C396.869 119.885 396.969 119.985 396.969 120.185V120.935ZM406.148 133.835C407.088 133.835 407.888 133.625 408.548 133.205C409.228 132.765 409.758 132.165 410.138 131.405C410.238 131.225 410.368 131.175 410.528 131.255L411.308 131.645C411.488 131.745 411.538 131.875 411.458 132.035C411.018 133.015 410.318 133.795 409.358 134.375C408.418 134.955 407.308 135.245 406.028 135.245C404.628 135.245 403.438 134.905 402.458 134.225C401.478 133.545 400.808 132.615 400.448 131.435C400.288 130.935 400.178 130.375 400.118 129.755C400.058 129.135 400.028 128.355 400.028 127.415C400.028 126.435 400.038 125.695 400.058 125.195C400.098 124.695 400.168 124.235 400.268 123.815C400.588 122.555 401.238 121.545 402.218 120.785C403.218 120.025 404.438 119.645 405.878 119.645C407.518 119.645 408.828 120.075 409.808 120.935C410.788 121.775 411.398 122.945 411.638 124.445C411.698 124.825 411.738 125.275 411.758 125.795C411.778 126.295 411.788 126.925 411.788 127.685C411.788 127.885 411.688 127.985 411.488 127.985H401.708C401.628 127.985 401.588 128.025 401.588 128.105C401.588 129.385 401.638 130.235 401.738 130.655C401.958 131.635 402.448 132.415 403.208 132.995C403.988 133.555 404.968 133.835 406.148 133.835ZM401.798 124.175C401.698 124.555 401.628 125.335 401.588 126.515C401.588 126.595 401.628 126.635 401.708 126.635H410.078C410.158 126.635 410.198 126.595 410.198 126.515C410.198 125.515 410.148 124.765 410.048 124.265C409.828 123.305 409.348 122.535 408.608 121.955C407.868 121.355 406.958 121.055 405.878 121.055C404.798 121.055 403.898 121.345 403.178 121.925C402.458 122.485 401.998 123.235 401.798 124.175ZM421.462 135.245C420.042 135.245 418.832 134.875 417.832 134.135C416.852 133.395 416.192 132.405 415.852 131.165C415.592 130.205 415.462 128.955 415.462 127.415C415.462 125.935 415.592 124.695 415.852 123.695C416.172 122.475 416.832 121.495 417.832 120.755C418.832 120.015 420.042 119.645 421.462 119.645C422.882 119.645 424.102 120.005 425.122 120.725C426.162 121.445 426.822 122.345 427.102 123.425C427.182 123.705 427.242 123.985 427.282 124.265V124.325C427.282 124.465 427.192 124.555 427.012 124.595L426.052 124.715H425.992C425.852 124.715 425.762 124.625 425.722 124.445L425.632 124.025C425.452 123.185 424.982 122.485 424.222 121.925C423.462 121.345 422.542 121.055 421.462 121.055C420.362 121.055 419.442 121.345 418.702 121.925C417.982 122.505 417.522 123.275 417.322 124.235C417.142 124.995 417.052 126.065 417.052 127.445C417.052 128.845 417.142 129.905 417.322 130.625C417.522 131.605 417.982 132.385 418.702 132.965C419.442 133.545 420.362 133.835 421.462 133.835C422.542 133.835 423.462 133.555 424.222 132.995C425.002 132.415 425.472 131.695 425.632 130.835L425.662 130.685C425.702 130.465 425.822 130.375 426.022 130.415L426.952 130.565C427.152 130.605 427.242 130.715 427.222 130.895L427.102 131.435C426.822 132.555 426.162 133.475 425.122 134.195C424.102 134.895 422.882 135.245 421.462 135.245ZM432.227 116.855C431.787 116.855 431.427 116.715 431.147 116.435C430.867 116.155 430.727 115.795 430.727 115.355C430.727 114.915 430.867 114.555 431.147 114.275C431.427 113.995 431.787 113.855 432.227 113.855C432.667 113.855 433.027 113.995 433.307 114.275C433.587 114.555 433.727 114.915 433.727 115.355C433.727 115.795 433.587 116.155 433.307 116.435C433.027 116.715 432.667 116.855 432.227 116.855ZM431.657 134.975C431.457 134.975 431.357 134.875 431.357 134.675V120.155C431.357 119.955 431.457 119.855 431.657 119.855H432.647C432.847 119.855 432.947 119.955 432.947 120.155V134.675C432.947 134.875 432.847 134.975 432.647 134.975H431.657ZM449.598 123.635C449.738 124.095 449.828 124.615 449.868 125.195C449.908 125.755 449.928 126.495 449.928 127.415C449.928 128.335 449.908 129.085 449.868 129.665C449.828 130.225 449.748 130.735 449.628 131.195C449.328 132.435 448.698 133.425 447.738 134.165C446.798 134.885 445.628 135.245 444.228 135.245C443.348 135.245 442.558 135.075 441.858 134.735C441.178 134.375 440.628 133.865 440.208 133.205C440.168 133.165 440.128 133.155 440.088 133.175C440.068 133.175 440.058 133.205 440.058 133.265V140.585C440.058 140.785 439.958 140.885 439.758 140.885H438.768C438.568 140.885 438.468 140.785 438.468 140.585V120.185C438.468 119.985 438.568 119.885 438.768 119.885H439.758C439.958 119.885 440.058 119.985 440.058 120.185V121.625C440.058 121.685 440.068 121.725 440.088 121.745C440.128 121.745 440.168 121.725 440.208 121.685C440.628 121.025 441.178 120.525 441.858 120.185C442.558 119.825 443.348 119.645 444.228 119.645C445.588 119.645 446.738 120.005 447.678 120.725C448.618 121.445 449.258 122.415 449.598 123.635ZM447.918 130.955C448.078 130.595 448.188 130.175 448.248 129.695C448.308 129.215 448.338 128.465 448.338 127.445C448.338 126.405 448.308 125.655 448.248 125.195C448.188 124.715 448.088 124.275 447.948 123.875C447.748 123.035 447.298 122.355 446.598 121.835C445.898 121.315 445.058 121.055 444.078 121.055C443.138 121.055 442.348 121.325 441.708 121.865C441.088 122.385 440.668 123.055 440.448 123.875C440.308 124.235 440.208 124.655 440.148 125.135C440.088 125.615 440.058 126.385 440.058 127.445C440.058 128.505 440.088 129.275 440.148 129.755C440.208 130.235 440.308 130.675 440.448 131.075C440.668 131.895 441.088 132.565 441.708 133.085C442.348 133.585 443.138 133.835 444.078 133.835C444.998 133.835 445.788 133.605 446.448 133.145C447.108 132.665 447.558 132.045 447.798 131.285L447.918 130.955ZM459.23 119.645C460.99 119.645 462.33 120.105 463.25 121.025C464.17 121.925 464.63 123.145 464.63 124.685V134.705C464.63 134.905 464.53 135.005 464.33 135.005H463.34C463.14 135.005 463.04 134.905 463.04 134.705V133.295C463.04 133.255 463.02 133.225 462.98 133.205C462.96 133.185 462.93 133.195 462.89 133.235C462.37 133.895 461.69 134.395 460.85 134.735C460.03 135.075 459.11 135.245 458.09 135.245C456.71 135.245 455.54 134.895 454.58 134.195C453.62 133.495 453.14 132.425 453.14 130.985C453.14 129.505 453.69 128.335 454.79 127.475C455.89 126.615 457.4 126.185 459.32 126.185H462.92C463 126.185 463.04 126.145 463.04 126.065V124.715C463.04 123.595 462.72 122.705 462.08 122.045C461.46 121.385 460.5 121.055 459.2 121.055C458.18 121.055 457.34 121.265 456.68 121.685C456.02 122.105 455.61 122.665 455.45 123.365C455.39 123.565 455.27 123.655 455.09 123.635L454.04 123.485C453.82 123.445 453.73 123.365 453.77 123.245C453.95 122.165 454.53 121.295 455.51 120.635C456.51 119.975 457.75 119.645 459.23 119.645ZM458.36 133.865C459.62 133.865 460.71 133.555 461.63 132.935C462.57 132.315 463.04 131.455 463.04 130.355V127.625C463.04 127.545 463 127.505 462.92 127.505H459.47C458.05 127.505 456.9 127.805 456.02 128.405C455.16 129.005 454.73 129.835 454.73 130.895C454.73 131.875 455.07 132.615 455.75 133.115C456.43 133.615 457.3 133.865 458.36 133.865ZM475.163 120.935C475.163 121.135 475.063 121.235 474.863 121.235H471.353C471.273 121.235 471.233 121.275 471.233 121.355V130.835C471.233 131.855 471.463 132.575 471.923 132.995C472.383 133.395 473.123 133.595 474.143 133.595H474.833C475.033 133.595 475.133 133.695 475.133 133.895V134.705C475.133 134.905 475.033 135.005 474.833 135.005L473.933 135.035C472.533 135.035 471.473 134.765 470.753 134.225C470.053 133.685 469.693 132.695 469.673 131.255V121.355C469.673 121.275 469.633 121.235 469.553 121.235H467.753C467.553 121.235 467.453 121.135 467.453 120.935V120.185C467.453 119.985 467.553 119.885 467.753 119.885H469.553C469.633 119.885 469.673 119.845 469.673 119.765V116.345C469.673 116.145 469.773 116.045 469.973 116.045H470.933C471.133 116.045 471.233 116.145 471.233 116.345V119.765C471.233 119.845 471.273 119.885 471.353 119.885H474.863C475.063 119.885 475.163 119.985 475.163 120.185V120.935ZM480.43 116.855C479.99 116.855 479.63 116.715 479.35 116.435C479.07 116.155 478.93 115.795 478.93 115.355C478.93 114.915 479.07 114.555 479.35 114.275C479.63 113.995 479.99 113.855 480.43 113.855C480.87 113.855 481.23 113.995 481.51 114.275C481.79 114.555 481.93 114.915 481.93 115.355C481.93 115.795 481.79 116.155 481.51 116.435C481.23 116.715 480.87 116.855 480.43 116.855ZM479.86 134.975C479.66 134.975 479.56 134.875 479.56 134.675V120.155C479.56 119.955 479.66 119.855 479.86 119.855H480.85C481.05 119.855 481.15 119.955 481.15 120.155V134.675C481.15 134.875 481.05 134.975 480.85 134.975H479.86ZM490.212 135.005C490.032 135.005 489.912 134.925 489.852 134.765L484.872 120.215L484.842 120.095C484.842 119.955 484.932 119.885 485.112 119.885H486.252C486.432 119.885 486.552 119.965 486.612 120.125L490.692 132.545C490.712 132.585 490.742 132.605 490.782 132.605C490.822 132.605 490.852 132.585 490.872 132.545L494.952 120.125C495.012 119.965 495.132 119.885 495.312 119.885L496.422 119.915C496.642 119.915 496.722 120.025 496.662 120.245L491.712 134.765C491.652 134.925 491.532 135.005 491.352 135.005H490.212ZM504.709 119.645C506.469 119.645 507.809 120.105 508.729 121.025C509.649 121.925 510.109 123.145 510.109 124.685V134.705C510.109 134.905 510.009 135.005 509.809 135.005H508.819C508.619 135.005 508.519 134.905 508.519 134.705V133.295C508.519 133.255 508.499 133.225 508.459 133.205C508.439 133.185 508.409 133.195 508.369 133.235C507.849 133.895 507.169 134.395 506.329 134.735C505.509 135.075 504.589 135.245 503.569 135.245C502.189 135.245 501.019 134.895 500.059 134.195C499.099 133.495 498.619 132.425 498.619 130.985C498.619 129.505 499.169 128.335 500.269 127.475C501.369 126.615 502.879 126.185 504.799 126.185H508.399C508.479 126.185 508.519 126.145 508.519 126.065V124.715C508.519 123.595 508.199 122.705 507.559 122.045C506.939 121.385 505.979 121.055 504.679 121.055C503.659 121.055 502.819 121.265 502.159 121.685C501.499 122.105 501.089 122.665 500.929 123.365C500.869 123.565 500.749 123.655 500.569 123.635L499.519 123.485C499.299 123.445 499.209 123.365 499.249 123.245C499.429 122.165 500.009 121.295 500.989 120.635C501.989 119.975 503.229 119.645 504.709 119.645ZM503.839 133.865C505.099 133.865 506.189 133.555 507.109 132.935C508.049 132.315 508.519 131.455 508.519 130.355V127.625C508.519 127.545 508.479 127.505 508.399 127.505H504.949C503.529 127.505 502.379 127.805 501.499 128.405C500.639 129.005 500.209 129.835 500.209 130.895C500.209 131.875 500.549 132.615 501.229 133.115C501.909 133.615 502.779 133.865 503.839 133.865Z" fill="#0066CC"/>
<g id="Brand mark">
<rect id="Rectangle 7" y="-1.14441e-05" width="150" height="150" fill="#0066CC"/>
<g id="Emblem">
<path id="OR" d="M63.9219 135.565C60.0879 135.565 56.7129 134.782 53.7969 133.216C50.8809 131.65 48.6129 129.463 46.9929 126.655C45.4269 123.793 44.6439 120.499 44.6439 116.773V96.3607C44.6439 92.6347 45.4269 89.3677 46.9929 86.5597C48.6129 83.6977 50.8809 81.4837 53.7969 79.9177C56.7129 78.3517 60.0879 77.5687 63.9219 77.5687C67.7559 77.5687 71.1309 78.3517 74.0469 79.9177C77.0169 81.4837 79.2849 83.6977 80.8509 86.5597C82.4709 89.3677 83.2809 92.6347 83.2809 96.3607V116.773C83.2809 120.499 82.4709 123.793 80.8509 126.655C79.2849 129.463 77.0169 131.65 74.0469 133.216C71.1309 134.782 67.7559 135.565 63.9219 135.565ZM63.9219 130.624C68.0259 130.624 71.3199 129.382 73.8039 126.898C76.2879 124.414 77.5299 121.12 77.5299 117.016V96.2797C77.5299 92.1757 76.2879 88.8817 73.8039 86.3977C71.3199 83.8597 68.0259 82.5907 63.9219 82.5907C59.8719 82.5907 56.6049 83.8597 54.1209 86.3977C51.6369 88.8817 50.3949 92.1757 50.3949 96.2797V117.016C50.3949 121.12 51.6369 124.414 54.1209 126.898C56.6049 129.382 59.8719 130.624 63.9219 130.624ZM129.862 134.917C129.376 134.917 129.052 134.728 128.89 134.35L116.983 109.24C116.929 109.078 116.821 108.997 116.659 108.997H102.889C102.673 108.997 102.565 109.105 102.565 109.321V134.107C102.565 134.647 102.295 134.917 101.755 134.917H97.6236C97.0836 134.917 96.8136 134.647 96.8136 134.107V79.0267C96.8136 78.4867 97.0836 78.2167 97.6236 78.2167H118.603C123.247 78.2167 127 79.6747 129.862 82.5907C132.724 85.4527 134.155 89.2057 134.155 93.8497C134.155 97.6297 133.129 100.843 131.077 103.489C129.025 106.135 126.244 107.836 122.734 108.592C122.518 108.7 122.464 108.835 122.572 108.997L134.722 133.945C134.776 134.053 134.803 134.188 134.803 134.35C134.803 134.728 134.587 134.917 134.155 134.917H129.862ZM102.889 83.2387C102.673 83.2387 102.565 83.3467 102.565 83.5627V104.056C102.565 104.272 102.673 104.38 102.889 104.38H117.955C121.087 104.38 123.625 103.408 125.569 101.464C127.513 99.5197 128.485 96.9817 128.485 93.8497C128.485 90.7177 127.513 88.1797 125.569 86.2357C123.625 84.2377 121.087 83.2387 117.955 83.2387H102.889Z" fill="#F4F5F0"/>
<path id="Line 1" d="M55.7681 67.5371V67.5371C61.1448 59.852 72.2211 63.6314 72.1313 73.1206L72.0438 82.372" stroke="#F4F5F0" stroke-width="3.5"/>
</g>
</g>
</g>
</svg>
